{"title":"When Calls The Heart_S01_E07_480p.HDTV.x264_TTL","uid":9653895,"size":356207213,"categoryP":"video","categoryS":"tv_shows","magnet":"?xt=urn:btih:79cee64e58219186c73cdca7d6b34e79f1d8e5f0&amp;dn=When+Calls+The+Heart_S01_E07_480p.HDTV.x264_TTL&amp;tr=udp%3A%2F%2Ftracker.openbittorrent.com%3A80&amp;tr=udp%3A%2F%2Fopen.demonii.com%3A1337&amp;tr=udp%3A%2F%2Ftracker.coppersurfer.tk%3A6969&amp;tr=udp%3A%2F%2Fexodus.desync.com%3A6969","seeders":2,"leechers":0,"uploader":"thetorrentlord","files":-1,"time":1393143456,"description":"New series from the Hallmark Channel.\t\t\t\t\t\t\t\t\n\n\t\t\t\t\t\t\t\t\t\t\t\t\n\nEnjoy and please share.\t\t\t\t\t\t\t\t\t\t\n\n\t\t\t\t\t\t\t\t\t\t\t\t\n\n\t\t\t\t\t\t\t\t\t\t\t\t\n\nTTLTTLTTLTTLTTLTTLTTLTTLTTLTTLTTLTTLTTLTTLTTLTTLTTLTTLTTLTTLTTLTTL\t\t\t\t\n\n\t\t\t\t\t\t\t\t\t\t\t\t\n\n\t\t\t\t\t\t\t\t\t\t\t\t\n\n\t\t\t\t\t\t\t\t\t\t\t\t\n\nWhen Calls The Heart_S01_E07_480p.HDTV.x264_TTL.mp4\nFormat                           : MPEG-4\nFormat profile                   : Base Media / Version 2\nCodec ID                         : mp42\nFile size                        : 332 MiB\nDuration                         : 41mn 57s\nOverall bit rate                 : 1 106 Kbps\nEncoded date                     : UTC 2014-02-23 04:55:30\nTagged date                      : UTC 2014-02-23 05:12:55\nWriting application              : HandBrake 0.9.5 2011010300\n\nVideo\nID                               : 1\nFormat                           : AVC\nFormat/Info                      : Advanced Video Codec\nFormat profile                   : &lt;a class=&quot;__cf_email__&quot; href=&quot;/cdn-cgi/l/email-protection&quot; data-cfemail=&quot;91d9f8f6f9d1dda2bfa1&quot;&gt;[email&amp;#160;protected]&lt;/a&gt;&lt;script cf-hash='f9e31' type=&quot;text/javascript&quot;&gt;\n/* &lt;![CDATA[ */!function(){try{var t=&quot;currentScript&quot;in document?document.currentScript:function(){for(var t=document.getElementsByTagName(&quot;script&quot;),e=t.length;e--;)if(t[e].getAttribute(&quot;cf-hash&quot;))return t[e]}();if(t&amp;&amp;t.previousSibling){var e,r,n,i,c=t.previousSibling,a=c.getAttribute(&quot;data-cfemail&quot;);if(a){for(e=&quot;&quot;,r=parseInt(a.substr(0,2),16),n=2;a.length-n;n+=2)i=parseInt(a.substr(n,2),16)^r,e+=String.fromCharCode(i);e=document.createTextNode(e),c.parentNode.replaceChild(e,c)}}}catch(u){}}();/* ]]&gt; */&lt;/script&gt;\nFormat settings, CABAC           : Yes\nFormat settings, ReFrames        : 4 frames\nCodec ID                         : avc1\nCodec ID/Info                    : Advanced Video Coding\nDuration                         : 41mn 57s\nBit rate mode                    : Variable\nBit rate                         : 941 Kbps\nWidth                            : 624 pixels\nHeight                           : 352 pixels\nDisplay aspect ratio             : 16:9\nFrame rate mode                  : Constant\nFrame rate                       : 29.970 fps\nColor space                      : YUV\nChroma subsampling               : 4:2:0\nBit depth                        : 8 bits\nScan type                        : Progressive\nBits/(Pixel*Frame)               : 0.143\nStream size                      : 282 MiB (85%)\nWriting library                  : x264 core 112\n\nAudio\nID                               : 2\nFormat                           : AAC\nFormat/Info                      : Advanced Audio Codec\nFormat version                   : Version 4\nFormat profile                   : LC\nFormat settings, SBR             : No\nCodec ID                         : 40\nDuration                         : 41mn 57s\nBit rate mode                    : Variable\nBit rate                         : 160 Kbps\nMaximum bit rate                 : 194 Kbps\nChannel(s)                       : 2 channels\nChannel positions                : Front: L R\nSampling rate                    : 48.0 KHz\nStream size                      : 48.0 MiB (14%)\nEncoded date                     : UTC 2014-02-23 04:55:30\nTagged date                      : UTC 2014-02-23 05:12:54\n\n","torrent":{"xt":"urn:btih:79cee64e58219186c73cdca7d6b34e79f1d8e5f0","amp;dn":"When+Calls+The+Heart_S01_E07_480p.HDTV.x264_TTL","amp;tr":["udp%3A%2F%2Ftracker.openbittorrent.com%3A80","udp%3A%2F%2Fopen.demonii.com%3A1337","udp%3A%2F%2Ftracker.coppersurfer.tk%3A6969","udp%3A%2F%2Fexodus.desync.com%3A6969"],"infoHash":"79cee64e58219186c73cdca7d6b34e79f1d8e5f0","infoHashBuffer":{"type":"Buffer","data":[121,206,230,78,88,33,145,134,199,60,220,167,214,179,78,121,241,216,229,240]},"announce":[],"urlList":[]}}